<?xml version="1.0" encoding="utf-8"?>
<!-- Generator: Adobe Illustrator 16.0.0, SVG Export Plug-In . SVG Version: 6.00 Build 0)  -->
<!DOCTYPE svg PUBLIC "-//W3C//DTD SVG 1.1//EN" "http://www.w3.org/Graphics/SVG/1.1/DTD/svg11.dtd">
<svg version="1.1" id="Layer_1" xmlns="http://www.w3.org/2000/svg" xmlns:xlink="http://www.w3.org/1999/xlink" x="0px" y="0px"
	 width="237px" height="123.5px" viewBox="0 0 237 123.5" enable-background="new 0 0 237 123.5" xml:space="preserve">
<g id="Layer_1">
	
		<image overflow="visible" opacity="0.49" width="1009" height="542" xlink:href="96EBDD15549F5147.png"  transform="matrix(0.24 0 0 0.24 -2.1694 -1.9194)">
	</image>
	<g>
		<g>
			<g>
				<g>
					<path fill-rule="evenodd" clip-rule="evenodd" fill="#FFFFFF" d="M3.5,67.856c0.139,2.819,1.511,5.57,2.059,8.241l8.377-43.045
						c-1.542,2.429-3.94,4.965-5.136,7.595L3.5,67.856z M35.813,11.421l-17.598,90.341c1.941,1.955,4.045,3.752,5.008,5.369
						l19.353-99.47C41.091,8.721,38.399,9.981,35.813,11.421z M37.197,113.76c3.642,1.291,7.494,2.195,11.514,2.67l4.83-24.82
						c-4.118-0.818-7.87-2.484-11.091-4.812L37.197,113.76z M65.84,28.394L70.578,4.04c-1.872-0.191-3.777-0.29-5.716-0.29
						c-2.121,0-4.223,0.118-6.303,0.347l-5.137,26.37c3.591-1.35,7.428-2.092,11.375-2.092
						C65.147,28.375,65.494,28.383,65.84,28.394z M57.935,116.75c6.018-0.277,11.871-1.492,17.405-3.5l5.667-29.133
						c-5.143,4.326-11.473,7.191-18.255,7.899L57.935,116.75z M89.249,41.766l5.618-28.875c-4.573-3.162-9.722-5.6-15.307-7.159
						l-4.744,24.351C80.897,32.261,85.924,36.394,89.249,41.766z M83.883,70l3.498-18.553H70.952L67.046,70H83.883z M100.009,15.981
						l-5.09,26.641h20.758C113.036,31.709,107.853,22.668,100.009,15.981z M81.465,111.18c10.299-4.803,19.224-12.414,25.655-21.8
						l7.481-37.933H93.2L81.465,111.18z M165.818,51.418h-8.68l6.985,20.339l-2.46,12.377h8.025l2.334-12.056l16.059-20.661h-9.609
						l-8.658,11.786L165.818,51.418z M191.586,51.418l-6.535,32.716h7.958l2.851-15.229l2.149,15.229h6.247l8.561-15.459
						l-2.92,15.459l7.496,0.001l6.408-32.717h-9.4l-11.154,18.919L200.1,51.418H191.586z M155.496,64.463l-16.926-0.002l-1.4,7.041
						h8.84c-1.119,4.422-4.608,6.202-8.328,6.202c-4.273,0-7.389-3.508-7.373-8.433c0.022-6.764,4.169-10.997,9.681-10.997
						c2.803,0,5.429,1.335,6.419,3.485h8.576c-1.342-6.89-6.703-10.985-14.513-10.985c-6.247,0-11.56,2.38-14.882,7.167
						c-2.168,3.128-3.755,7.041-3.77,11.548c-0.029,9.065,6.102,14.874,15.422,15.335c10.402,0.516,18.215-8.398,18.254-20.271
						C155.496,64.554,155.496,64.508,155.496,64.463z M196.474,36.117h-9.12l0.689-3.479l9.047-0.001l1.188-6.1h-9.034l0.675-3.451
						h9.074l1.316-6.523h-16.29L178.895,42.6l16.281,0L196.474,36.117z M133.031,42.6h7.088l4.008-19.514l5.605,0.001l1.299-6.523
						h-18.957l-1.298,6.522h6.263L133.031,42.6z M159.807,33.861h7.562l-1.711,8.739h6.945l5.072-26.037h-6.984l-1.997,10.31h-7.537
						l2.066-10.31h-7.03L151.2,42.6h6.896L159.807,33.861z M126.6,93.16l-6.342,11.406h3.268l0.783-1.652h3.957l0.272,1.652h2.915
						l-2.019-11.406H126.6z M125.527,100.412l1.84-3.963l0.546,3.963H125.527z M140.227,100.733l-0.688-7.573h-3.86l-2.24,11.406
						h2.643l1.504-8.342l0.881,8.342h2.18l3.891-8.229l-1.507,8.229h2.563l2.211-11.406h-4.02L140.227,100.733z M154.09,92.936
						c-2.482,0-4.065,1.585-3.988,3.547c0.045,1.121,0.689,2.181,2.035,3.079c0.992,0.657,1.819,1.198,1.961,1.873
						c0.157,0.751-0.428,1.249-1.289,1.116c-0.618-0.094-0.961-0.6-0.961-1.385c0-0.096,0-0.209,0.017-0.32h-2.852
						c-0.015,0.127-0.015,0.256-0.015,0.385c0,2.293,1.376,3.578,3.875,3.578c2.594,0,4.132-1.542,4.132-3.658
						c0-1.299-0.855-2.047-2.185-2.962c-1.138-0.786-1.89-1.227-1.89-1.933c0-1.04,0.655-1.243,1.175-1.146
						c0.565,0.106,0.833,0.537,0.833,1.372v0.159h2.706c0.018-0.191,0.032-0.384,0.032-0.561
						C157.677,94.09,156.381,92.936,154.09,92.936z M159.902,95.695h2.436l-1.729,8.871h2.755l1.729-8.871h2.178l0.496-2.535H160.4
						L159.902,95.695z M168.68,104.566h6.325l0.497-2.519h-3.556l0.368-1.94h3.556l0.496-2.519h-3.57l0.368-1.894h3.57l0.48-2.535
						h-6.324L168.68,104.566z M184.534,93.16h-3.507l-2.258,11.406h2.786l0.833-4.105l2.129,4.105h3.156l-2.308-4.09
						c2.179-0.498,3.396-1.941,3.396-3.85C188.762,94.412,187.288,93.16,184.534,93.16z M183.766,98.503h-1.058l0.577-2.919
						c0.16,0,0.32-0.016,0.463-0.016c1.379,0,1.955,0.367,1.955,1.459C185.703,98.102,185.062,98.503,183.766,98.503z
						 M195.941,93.16h-3.428l-2.21,11.406h4.323c4.102,0,6.775-2.582,6.775-6.432C201.402,95.006,199.432,93.16,195.941,93.16z
						 M195.012,102.048h-1.426l1.233-6.353h1.122c1.713,0,2.609,0.945,2.609,2.711C198.551,100.588,197.126,102.048,195.012,102.048
						z M207.615,93.16l-6.344,11.406h3.269l0.784-1.652h3.955l0.272,1.652h2.915l-2.019-11.406H207.615z M206.541,100.412
						l1.842-3.963l0.545,3.963H206.541z M224.48,93.16l-3.555,7.573l-0.689-7.573h-3.859l-2.242,11.406h2.643l1.505-8.342
						l0.882,8.342h2.178l3.891-8.229l-1.506,8.229h2.562L228.5,93.16H224.48z"/>
				</g>
			</g>
		</g>
	</g>
</g>
</svg>
