<?xml version="1.0" encoding="utf-8"?>
<!-- Generator: Adobe Illustrator 16.0.0, SVG Export Plug-In . SVG Version: 6.00 Build 0)  -->
<!DOCTYPE svg PUBLIC "-//W3C//DTD SVG 1.1//EN" "http://www.w3.org/Graphics/SVG/1.1/DTD/svg11.dtd">
<svg version="1.1" id="Layer_1" xmlns="http://www.w3.org/2000/svg" xmlns:xlink="http://www.w3.org/1999/xlink" x="0px" y="0px"
	 width="225px" height="113px" viewBox="0 0 225 113" enable-background="new 0 0 225 113" xml:space="preserve">
<g>
	<g>
		<path fill-rule="evenodd" clip-rule="evenodd" d="M0,64.106c0.139,2.819,1.511,5.57,2.059,8.241l8.377-43.045
			c-1.542,2.429-3.94,4.965-5.136,7.595L0,64.106z M32.313,7.671L14.715,98.012c1.941,1.955,4.045,3.752,5.008,5.369l19.353-99.47
			C37.591,4.971,34.899,6.231,32.313,7.671z M33.697,110.01c3.642,1.291,7.494,2.195,11.514,2.67l4.83-24.82
			c-4.118-0.818-7.87-2.484-11.091-4.812L33.697,110.01z M62.34,24.644L67.078,0.29C65.207,0.099,63.301,0,61.362,0
			c-2.121,0-4.223,0.118-6.303,0.347l-5.137,26.37c3.591-1.35,7.428-2.092,11.375-2.092C61.647,24.625,61.994,24.633,62.34,24.644z
			 M54.435,113c6.018-0.277,11.871-1.492,17.405-3.5l5.667-29.133c-5.143,4.326-11.473,7.191-18.255,7.899L54.435,113z
			 M85.749,38.016l5.618-28.875c-4.573-3.162-9.722-5.6-15.307-7.159l-4.744,24.351C77.397,28.511,82.424,32.644,85.749,38.016z
			 M80.383,66.25l3.498-18.553H67.452L63.546,66.25H80.383z M96.509,12.231l-5.09,26.641h20.758
			C109.536,27.959,104.353,18.918,96.509,12.231z M77.965,107.43c10.299-4.803,19.224-12.414,25.655-21.8l7.481-37.933H89.7
			L77.965,107.43z M192.974,32.367h-9.12l0.689-3.479l9.047-0.001l1.188-6.1h-9.034l0.675-3.451h9.074l1.316-6.523h-16.29
			l-5.125,26.037l16.281,0L192.974,32.367z M188.086,47.668l-6.535,32.716h7.958l2.851-15.229l2.149,15.229h6.247l8.561-15.459
			l-2.92,15.459l7.496,0.001l6.408-32.717h-9.4l-11.154,18.919L196.6,47.668H188.086z M129.531,38.85h7.088l4.008-19.514
			l5.605,0.001l1.299-6.523h-18.957l-1.298,6.522h6.263L129.531,38.85z M156.307,30.111h7.562l-1.711,8.739h6.945l5.072-26.037
			h-6.984l-1.997,10.31h-7.537l2.066-10.31h-7.03L147.7,38.85h6.896L156.307,30.111z M162.318,47.668h-8.68l6.985,20.339
			l-2.46,12.377h8.025l2.334-12.056l16.059-20.661h-9.609l-8.658,11.786L162.318,47.668z M151.996,60.713l-16.926-0.002l-1.4,7.041
			h8.84c-1.119,4.422-4.608,6.202-8.328,6.202c-4.273,0-7.389-3.508-7.373-8.433c0.022-6.764,4.169-10.997,9.681-10.997
			c2.803,0,5.429,1.335,6.419,3.485h8.576c-1.342-6.89-6.703-10.985-14.513-10.985c-6.247,0-11.56,2.38-14.882,7.167
			c-2.168,3.128-3.755,7.041-3.77,11.548c-0.029,9.065,6.102,14.874,15.422,15.335c10.402,0.516,18.215-8.398,18.254-20.271
			C151.996,60.804,151.996,60.758,151.996,60.713z M123.1,89.41l-6.342,11.406h3.268l0.783-1.652h3.957l0.272,1.652h2.915
			l-2.019-11.406H123.1z M122.027,96.662l1.84-3.963l0.546,3.963H122.027z M136.727,96.983l-0.688-7.573h-3.86l-2.24,11.406h2.643
			l1.504-8.342l0.881,8.342h2.18l3.891-8.229l-1.507,8.229h2.563l2.211-11.406h-4.02L136.727,96.983z M150.59,89.186
			c-2.482,0-4.065,1.585-3.988,3.547c0.045,1.121,0.689,2.181,2.035,3.079c0.992,0.657,1.819,1.198,1.961,1.873
			c0.157,0.751-0.428,1.249-1.289,1.116c-0.618-0.094-0.961-0.6-0.961-1.385c0-0.096,0-0.209,0.017-0.32h-2.852
			c-0.015,0.127-0.015,0.256-0.015,0.385c0,2.293,1.376,3.578,3.875,3.578c2.594,0,4.132-1.542,4.132-3.658
			c0-1.299-0.855-2.047-2.185-2.962c-1.138-0.786-1.89-1.227-1.89-1.933c0-1.04,0.655-1.243,1.175-1.146
			c0.565,0.106,0.833,0.537,0.833,1.372v0.159h2.706c0.018-0.191,0.032-0.384,0.032-0.561
			C154.177,90.34,152.881,89.186,150.59,89.186z M156.402,91.945h2.436l-1.729,8.871h2.755l1.729-8.871h2.178l0.496-2.535H156.9
			L156.402,91.945z M165.18,100.816h6.325l0.497-2.519h-3.556l0.368-1.94h3.556l0.496-2.519h-3.57l0.368-1.894h3.57l0.48-2.535
			h-6.324L165.18,100.816z M181.034,89.41h-3.507l-2.258,11.406h2.786l0.833-4.105l2.129,4.105h3.156l-2.308-4.09
			c2.179-0.498,3.396-1.941,3.396-3.85C185.262,90.662,183.788,89.41,181.034,89.41z M180.266,94.753h-1.058l0.577-2.919
			c0.16,0,0.32-0.016,0.463-0.016c1.379,0,1.955,0.367,1.955,1.459C182.203,94.352,181.562,94.753,180.266,94.753z M192.441,89.41
			h-3.428l-2.21,11.406h4.323c4.102,0,6.775-2.582,6.775-6.432C197.902,91.256,195.932,89.41,192.441,89.41z M191.512,98.298h-1.426
			l1.233-6.353h1.122c1.713,0,2.609,0.945,2.609,2.711C195.051,96.838,193.626,98.298,191.512,98.298z M204.115,89.41l-6.344,11.406
			h3.269l0.784-1.652h3.955l0.272,1.652h2.915l-2.019-11.406H204.115z M203.041,96.662l1.842-3.963l0.545,3.963H203.041z
			 M220.98,89.41l-3.555,7.573l-0.689-7.573h-3.859l-2.242,11.406h2.643l1.505-8.342l0.882,8.342h2.178l3.891-8.229l-1.506,8.229
			h2.562L225,89.41H220.98z"/>
	</g>
</g>
</svg>
